<svg width="277" height="84" viewBox="0 0 277 84" fill="none" xmlns="http://www.w3.org/2000/svg">
<path d="M90.408 43.016C90.408 54.664 97.408 62.392 108.272 62.392C119.136 62.392 126.08 54.608 126.08 43.016C126.08 31.312 119.248 23.584 108.216 23.584C97.352 23.584 90.408 31.368 90.408 43.016ZM97.968 43.016C97.968 35.064 101.888 30.08 108.216 30.08C114.656 30.08 118.52 35.064 118.52 43.016C118.52 50.968 114.656 55.896 108.272 55.896C102 55.896 97.968 50.968 97.968 43.016ZM140.509 33.608H133.789L133.733 62H140.509V47.328C140.509 42.904 142.973 39.488 146.725 39.488C147.677 39.488 148.573 39.6 149.581 40.048V33.552C148.853 33.384 148.293 33.384 147.677 33.384C144.093 33.384 141.685 35.512 140.509 38.648V33.608ZM169.099 56.624C165.291 56.624 162.043 53.712 162.043 47.552C162.043 41.336 165.851 38.928 169.043 38.928C172.739 38.928 175.931 42.008 175.931 47.944C175.931 53.208 172.851 56.624 169.099 56.624ZM162.043 22.408H155.267V62H162.043V57.632C163.947 60.712 166.971 62.392 170.611 62.392C178.395 62.392 182.763 55.448 182.763 47.832C182.763 38.704 177.499 33.216 170.555 33.216C167.027 33.216 164.003 34.84 162.043 37.92V22.408ZM190.476 62H197.196V33.608H190.476V62ZM189.804 25.096C189.804 27.392 191.596 29.184 193.836 29.184C196.076 29.184 197.868 27.392 197.868 25.096C197.868 22.856 196.076 21.064 193.836 21.064C191.596 21.064 189.804 22.856 189.804 25.096ZM214.599 38.648H221.655V33.608H214.599V26.776H207.879V33.608H203.623V38.648H207.879V52.984C207.879 58.976 210.791 62.28 217.063 62.28C218.463 62.28 220.703 62 222.103 61.328V55.56C220.983 56.288 219.471 56.736 218.183 56.736C215.999 56.736 214.599 55.504 214.599 53.096V38.648ZM246.401 45.48H234.473C235.145 40.832 237.889 38.592 240.913 38.592C244.553 38.592 246.233 41.168 246.401 44.64V45.48ZM250.993 54.608C249.145 55.952 246.513 56.848 243.433 56.848C238.897 56.848 235.593 54.664 234.585 50.52H252.393C252.561 49.456 252.785 47.552 252.785 46.488C252.785 37.64 247.913 33.328 240.745 33.328C233.633 33.328 227.809 38.48 227.809 47.832C227.809 56.176 233.185 62.28 242.425 62.28C245.169 62.28 248.921 61.72 250.993 60.432V54.608ZM267.362 33.608H260.642L260.586 62H267.362V47.328C267.362 42.904 269.826 39.488 273.578 39.488C274.53 39.488 275.426 39.6 276.434 40.048V33.552C275.706 33.384 275.146 33.384 274.53 33.384C270.946 33.384 268.538 35.512 267.362 38.648V33.608Z" fill="#322EFF"/>
<circle cx="21.6049" cy="44.7299" r="21.6049" fill="#322EFF"/>
<circle cx="58.9814" cy="43.2176" r="11.0185" fill="#322EFF"/>
<circle cx="5.83325" cy="14.375" r="4.375" fill="#322EFF"/>
</svg>
